<mxfile modified="2023-11-10T02:35:11.484Z" host="app.diagrams.net" agent="Mozilla/5.0 (Windows NT 10.0; Win64; x64) AppleWebKit/537.36 (KHTML, like Gecko) Chrome/118.0.0.0 Safari/537.36" etag="9cMg_4eM9A061wLEvM48" version="22.0.0" type="github">
  <diagram id="Ht1M8jgEwFfnCIfOTk4-" name="Page-1">
    <mxGraphModel dx="1600" dy="869" grid="1" gridSize="10" guides="1" tooltips="1" connect="1" arrows="1" fold="1" page="1" pageScale="1" pageWidth="827" pageHeight="1169" math="0" shadow="0">
      <root>
        <mxCell id="0" />
        <mxCell id="1" parent="0" />
        <mxCell id="UEzPUAAOIrF-is8g5C7q-74" value="AWS Cloud" style="points=[[0,0],[0.25,0],[0.5,0],[0.75,0],[1,0],[1,0.25],[1,0.5],[1,0.75],[1,1],[0.75,1],[0.5,1],[0.25,1],[0,1],[0,0.75],[0,0.5],[0,0.25]];outlineConnect=0;gradientColor=none;html=1;whiteSpace=wrap;fontSize=12;fontStyle=0;shape=mxgraph.aws4.group;grIcon=mxgraph.aws4.group_aws_cloud_alt;strokeColor=#232F3E;fillColor=none;verticalAlign=top;align=left;spacingLeft=30;fontColor=#232F3E;dashed=0;labelBackgroundColor=#ffffff;container=1;pointerEvents=0;collapsible=0;recursiveResize=0;" parent="1" vertex="1">
          <mxGeometry x="10" y="10" width="810" height="520" as="geometry" />
        </mxCell>
        <mxCell id="UEzPUAAOIrF-is8g5C7q-107" value="" style="rounded=0;whiteSpace=wrap;html=1;labelBackgroundColor=none;fillColor=none;dashed=1;container=1;pointerEvents=0;collapsible=0;recursiveResize=0;" parent="UEzPUAAOIrF-is8g5C7q-74" vertex="1">
          <mxGeometry x="10" y="40" width="310" height="280" as="geometry" />
        </mxCell>
        <mxCell id="Q-y3CwHCRKwZ-7sF2JY1-4" value="" style="sketch=0;outlineConnect=0;fontColor=#232F3E;gradientColor=none;fillColor=#8C4FFF;strokeColor=none;dashed=0;verticalLabelPosition=bottom;verticalAlign=top;align=center;html=1;fontSize=12;fontStyle=0;aspect=fixed;pointerEvents=1;shape=mxgraph.aws4.application_load_balancer;" vertex="1" parent="UEzPUAAOIrF-is8g5C7q-107">
          <mxGeometry x="110" y="21" width="78" height="78" as="geometry" />
        </mxCell>
        <mxCell id="UEzPUAAOIrF-is8g5C7q-98" value="Bucket" style="outlineConnect=0;fontColor=#232F3E;gradientColor=none;fillColor=#277116;strokeColor=none;dashed=0;verticalLabelPosition=bottom;verticalAlign=top;align=center;html=1;fontSize=12;fontStyle=0;aspect=fixed;pointerEvents=1;shape=mxgraph.aws4.bucket;labelBackgroundColor=#ffffff;" parent="UEzPUAAOIrF-is8g5C7q-107" vertex="1">
          <mxGeometry x="130" y="140" width="75" height="78" as="geometry" />
        </mxCell>
        <mxCell id="Q-y3CwHCRKwZ-7sF2JY1-6" value="" style="sketch=0;points=[[0,0,0],[0.25,0,0],[0.5,0,0],[0.75,0,0],[1,0,0],[0,1,0],[0.25,1,0],[0.5,1,0],[0.75,1,0],[1,1,0],[0,0.25,0],[0,0.5,0],[0,0.75,0],[1,0.25,0],[1,0.5,0],[1,0.75,0]];points=[[0,0,0],[0.25,0,0],[0.5,0,0],[0.75,0,0],[1,0,0],[0,1,0],[0.25,1,0],[0.5,1,0],[0.75,1,0],[1,1,0],[0,0.25,0],[0,0.5,0],[0,0.75,0],[1,0.25,0],[1,0.5,0],[1,0.75,0]];outlineConnect=0;fontColor=#232F3E;fillColor=#E7157B;strokeColor=#ffffff;dashed=0;verticalLabelPosition=bottom;verticalAlign=top;align=center;html=1;fontSize=12;fontStyle=0;aspect=fixed;shape=mxgraph.aws4.resourceIcon;resIcon=mxgraph.aws4.autoscaling;" vertex="1" parent="UEzPUAAOIrF-is8g5C7q-74">
          <mxGeometry x="380" y="230" width="78" height="78" as="geometry" />
        </mxCell>
        <mxCell id="Q-y3CwHCRKwZ-7sF2JY1-7" value="" style="sketch=0;points=[[0,0,0],[0.25,0,0],[0.5,0,0],[0.75,0,0],[1,0,0],[0,1,0],[0.25,1,0],[0.5,1,0],[0.75,1,0],[1,1,0],[0,0.25,0],[0,0.5,0],[0,0.75,0],[1,0.25,0],[1,0.5,0],[1,0.75,0]];outlineConnect=0;fontColor=#232F3E;fillColor=#C925D1;strokeColor=#ffffff;dashed=0;verticalLabelPosition=bottom;verticalAlign=top;align=center;html=1;fontSize=12;fontStyle=0;aspect=fixed;shape=mxgraph.aws4.resourceIcon;resIcon=mxgraph.aws4.rds;" vertex="1" parent="UEzPUAAOIrF-is8g5C7q-74">
          <mxGeometry x="490" y="170" width="78" height="78" as="geometry" />
        </mxCell>
        <mxCell id="Q-y3CwHCRKwZ-7sF2JY1-8" value="" style="sketch=0;points=[[0,0,0],[0.25,0,0],[0.5,0,0],[0.75,0,0],[1,0,0],[0,1,0],[0.25,1,0],[0.5,1,0],[0.75,1,0],[1,1,0],[0,0.25,0],[0,0.5,0],[0,0.75,0],[1,0.25,0],[1,0.5,0],[1,0.75,0]];outlineConnect=0;fontColor=#232F3E;fillColor=#ED7100;strokeColor=#ffffff;dashed=0;verticalLabelPosition=bottom;verticalAlign=top;align=center;html=1;fontSize=12;fontStyle=0;aspect=fixed;shape=mxgraph.aws4.resourceIcon;resIcon=mxgraph.aws4.ec2;" vertex="1" parent="UEzPUAAOIrF-is8g5C7q-74">
          <mxGeometry x="530" y="270" width="78" height="78" as="geometry" />
        </mxCell>
        <mxCell id="Q-y3CwHCRKwZ-7sF2JY1-38" value="" style="outlineConnect=0;dashed=0;verticalLabelPosition=bottom;verticalAlign=top;align=center;html=1;shape=mxgraph.aws3.application_load_balancer;fillColor=#F58534;gradientColor=none;" vertex="1" parent="UEzPUAAOIrF-is8g5C7q-74">
          <mxGeometry x="440" y="420" width="69" height="72" as="geometry" />
        </mxCell>
        <mxCell id="Q-y3CwHCRKwZ-7sF2JY1-12" value="" style="rounded=0;whiteSpace=wrap;html=1;labelBackgroundColor=none;fillColor=none;dashed=1;container=1;pointerEvents=0;collapsible=0;recursiveResize=0;" vertex="1" parent="1">
          <mxGeometry x="430" y="750" width="310" height="280" as="geometry" />
        </mxCell>
        <mxCell id="Q-y3CwHCRKwZ-7sF2JY1-15" style="edgeStyle=elbowEdgeStyle;rounded=0;orthogonalLoop=1;jettySize=auto;html=1;entryX=0;entryY=0.5;entryDx=0;entryDy=0;shape=flexArrow;startArrow=block;elbow=vertical;fillColor=#dae8fc;strokeColor=#6c8ebf;" edge="1" parent="Q-y3CwHCRKwZ-7sF2JY1-12" source="Q-y3CwHCRKwZ-7sF2JY1-9" target="Q-y3CwHCRKwZ-7sF2JY1-10">
          <mxGeometry relative="1" as="geometry" />
        </mxCell>
        <mxCell id="Q-y3CwHCRKwZ-7sF2JY1-9" value="" style="sketch=0;outlineConnect=0;fontColor=#232F3E;gradientColor=none;fillColor=#232F3D;strokeColor=none;dashed=0;verticalLabelPosition=bottom;verticalAlign=top;align=center;html=1;fontSize=12;fontStyle=0;aspect=fixed;pointerEvents=1;shape=mxgraph.aws4.traditional_server;" vertex="1" parent="Q-y3CwHCRKwZ-7sF2JY1-12">
          <mxGeometry x="50.96" y="116" width="68.08" height="118" as="geometry" />
        </mxCell>
        <mxCell id="Q-y3CwHCRKwZ-7sF2JY1-10" value="Server&lt;br&gt;DB" style="shape=datastore;whiteSpace=wrap;html=1;" vertex="1" parent="Q-y3CwHCRKwZ-7sF2JY1-12">
          <mxGeometry x="220" y="145" width="60" height="60" as="geometry" />
        </mxCell>
        <mxCell id="Q-y3CwHCRKwZ-7sF2JY1-20" value="&lt;b&gt;&lt;font style=&quot;font-size: 24px;&quot;&gt;BCC_APP SERVER&lt;/font&gt;&lt;/b&gt;" style="text;strokeColor=none;align=center;fillColor=none;html=1;verticalAlign=middle;whiteSpace=wrap;rounded=0;" vertex="1" parent="Q-y3CwHCRKwZ-7sF2JY1-12">
          <mxGeometry y="20" width="170" height="30" as="geometry" />
        </mxCell>
        <mxCell id="Q-y3CwHCRKwZ-7sF2JY1-16" value="" style="rounded=0;whiteSpace=wrap;html=1;labelBackgroundColor=none;fillColor=none;dashed=1;container=1;pointerEvents=0;collapsible=0;recursiveResize=0;" vertex="1" parent="1">
          <mxGeometry x="100" y="1020" width="310" height="140" as="geometry" />
        </mxCell>
        <mxCell id="Q-y3CwHCRKwZ-7sF2JY1-11" value="Member&#39;s&lt;br&gt;DB" style="shape=datastore;whiteSpace=wrap;html=1;" vertex="1" parent="Q-y3CwHCRKwZ-7sF2JY1-16">
          <mxGeometry x="170" y="50" width="60" height="60" as="geometry" />
        </mxCell>
        <mxCell id="Q-y3CwHCRKwZ-7sF2JY1-21" value="&lt;b&gt;&lt;font style=&quot;font-size: 24px;&quot;&gt;IFCA System&lt;/font&gt;&lt;/b&gt;" style="text;strokeColor=none;align=center;fillColor=none;html=1;verticalAlign=middle;whiteSpace=wrap;rounded=0;" vertex="1" parent="Q-y3CwHCRKwZ-7sF2JY1-16">
          <mxGeometry y="10" width="170" height="30" as="geometry" />
        </mxCell>
        <mxCell id="Q-y3CwHCRKwZ-7sF2JY1-22" style="edgeStyle=orthogonalEdgeStyle;rounded=0;orthogonalLoop=1;jettySize=auto;html=1;startArrow=none;startFill=0;shape=flexArrow;fillColor=#f8cecc;strokeColor=#b85450;exitX=1;exitY=0.7;exitDx=0;exitDy=0;" edge="1" parent="1" source="Q-y3CwHCRKwZ-7sF2JY1-11" target="Q-y3CwHCRKwZ-7sF2JY1-9">
          <mxGeometry relative="1" as="geometry">
            <mxPoint x="170" y="1102" as="sourcePoint" />
            <mxPoint x="490" y="1059.9999999999998" as="targetPoint" />
            <Array as="points" />
          </mxGeometry>
        </mxCell>
        <mxCell id="Q-y3CwHCRKwZ-7sF2JY1-24" value="" style="sketch=0;html=1;aspect=fixed;strokeColor=none;shadow=0;fillColor=#3B8DF1;verticalAlign=top;labelPosition=center;verticalLabelPosition=bottom;shape=mxgraph.gcp2.phone_android" vertex="1" parent="1">
          <mxGeometry x="730" y="600" width="56" height="100" as="geometry" />
        </mxCell>
        <mxCell id="Q-y3CwHCRKwZ-7sF2JY1-28" value="" style="rounded=0;whiteSpace=wrap;html=1;labelBackgroundColor=none;fillColor=none;dashed=1;container=1;pointerEvents=0;collapsible=0;recursiveResize=0;" vertex="1" parent="1">
          <mxGeometry x="100" y="750" width="310" height="240" as="geometry" />
        </mxCell>
        <mxCell id="Q-y3CwHCRKwZ-7sF2JY1-30" value="&lt;span style=&quot;font-size: 24px;&quot;&gt;&lt;b&gt;Network&lt;/b&gt;&lt;/span&gt;" style="text;strokeColor=none;align=center;fillColor=none;html=1;verticalAlign=middle;whiteSpace=wrap;rounded=0;" vertex="1" parent="Q-y3CwHCRKwZ-7sF2JY1-28">
          <mxGeometry x="-30" y="10" width="170" height="30" as="geometry" />
        </mxCell>
        <mxCell id="Q-y3CwHCRKwZ-7sF2JY1-26" value="" style="sketch=0;points=[[0.015,0.015,0],[0.985,0.015,0],[0.985,0.985,0],[0.015,0.985,0],[0.25,0,0],[0.5,0,0],[0.75,0,0],[1,0.25,0],[1,0.5,0],[1,0.75,0],[0.75,1,0],[0.5,1,0],[0.25,1,0],[0,0.75,0],[0,0.5,0],[0,0.25,0]];verticalLabelPosition=bottom;html=1;verticalAlign=top;aspect=fixed;align=center;pointerEvents=1;shape=mxgraph.cisco19.rect;prIcon=firewall;fillColor=#FAFAFA;strokeColor=#005073;" vertex="1" parent="Q-y3CwHCRKwZ-7sF2JY1-28">
          <mxGeometry x="123" y="60" width="64" height="50" as="geometry" />
        </mxCell>
        <mxCell id="Q-y3CwHCRKwZ-7sF2JY1-25" value="" style="sketch=0;points=[[0.5,0,0],[1,0.5,0],[0.5,1,0],[0,0.5,0],[0.145,0.145,0],[0.8555,0.145,0],[0.855,0.8555,0],[0.145,0.855,0]];verticalLabelPosition=bottom;html=1;verticalAlign=top;aspect=fixed;align=center;pointerEvents=1;shape=mxgraph.cisco19.rect;prIcon=router_with_firewall;fillColor=#FAFAFA;strokeColor=#005073;" vertex="1" parent="Q-y3CwHCRKwZ-7sF2JY1-28">
          <mxGeometry x="130" y="150" width="50" height="50" as="geometry" />
        </mxCell>
        <mxCell id="Q-y3CwHCRKwZ-7sF2JY1-37" style="edgeStyle=orthogonalEdgeStyle;rounded=0;orthogonalLoop=1;jettySize=auto;html=1;entryX=0.5;entryY=0;entryDx=0;entryDy=0;entryPerimeter=0;shape=flexArrow;fillColor=#f8cecc;strokeColor=#b85450;" edge="1" parent="Q-y3CwHCRKwZ-7sF2JY1-28" source="Q-y3CwHCRKwZ-7sF2JY1-26" target="Q-y3CwHCRKwZ-7sF2JY1-25">
          <mxGeometry relative="1" as="geometry" />
        </mxCell>
        <mxCell id="Q-y3CwHCRKwZ-7sF2JY1-31" style="edgeStyle=orthogonalEdgeStyle;rounded=0;orthogonalLoop=1;jettySize=auto;html=1;entryX=1;entryY=0.5;entryDx=0;entryDy=0;entryPerimeter=0;shape=flexArrow;fillColor=#f8cecc;strokeColor=#b85450;exitX=0;exitY=0.495;exitDx=0;exitDy=0;exitPerimeter=0;" edge="1" parent="1" source="Q-y3CwHCRKwZ-7sF2JY1-24" target="Q-y3CwHCRKwZ-7sF2JY1-1">
          <mxGeometry relative="1" as="geometry">
            <mxPoint x="668" y="650" as="sourcePoint" />
          </mxGeometry>
        </mxCell>
        <mxCell id="Q-y3CwHCRKwZ-7sF2JY1-35" style="edgeStyle=orthogonalEdgeStyle;rounded=0;orthogonalLoop=1;jettySize=auto;html=1;entryX=0.5;entryY=0;entryDx=0;entryDy=0;entryPerimeter=0;shape=flexArrow;fillColor=#f8cecc;strokeColor=#b85450;" edge="1" parent="1" source="Q-y3CwHCRKwZ-7sF2JY1-33" target="Q-y3CwHCRKwZ-7sF2JY1-26">
          <mxGeometry relative="1" as="geometry" />
        </mxCell>
        <mxCell id="Q-y3CwHCRKwZ-7sF2JY1-36" style="edgeStyle=orthogonalEdgeStyle;rounded=0;orthogonalLoop=1;jettySize=auto;html=1;shape=flexArrow;fillColor=#f8cecc;strokeColor=#b85450;" edge="1" parent="1" source="Q-y3CwHCRKwZ-7sF2JY1-25" target="Q-y3CwHCRKwZ-7sF2JY1-9">
          <mxGeometry relative="1" as="geometry" />
        </mxCell>
        <mxCell id="Q-y3CwHCRKwZ-7sF2JY1-1" value="" style="sketch=0;points=[[0,0,0],[0.25,0,0],[0.5,0,0],[0.75,0,0],[1,0,0],[0,1,0],[0.25,1,0],[0.5,1,0],[0.75,1,0],[1,1,0],[0,0.25,0],[0,0.5,0],[0,0.75,0],[1,0.25,0],[1,0.5,0],[1,0.75,0]];outlineConnect=0;fontColor=#232F3E;fillColor=#8C4FFF;strokeColor=#ffffff;dashed=0;verticalLabelPosition=bottom;verticalAlign=top;align=center;html=1;fontSize=12;fontStyle=0;aspect=fixed;shape=mxgraph.aws4.resourceIcon;resIcon=mxgraph.aws4.route_53;" vertex="1" parent="1">
          <mxGeometry x="376" y="609" width="78" height="78" as="geometry" />
        </mxCell>
        <mxCell id="Q-y3CwHCRKwZ-7sF2JY1-34" style="edgeStyle=orthogonalEdgeStyle;rounded=0;orthogonalLoop=1;jettySize=auto;html=1;" edge="1" parent="1" source="Q-y3CwHCRKwZ-7sF2JY1-1" target="Q-y3CwHCRKwZ-7sF2JY1-33">
          <mxGeometry relative="1" as="geometry" />
        </mxCell>
        <mxCell id="Q-y3CwHCRKwZ-7sF2JY1-33" value="Local&lt;br&gt;Server&lt;br&gt;Up?" style="rhombus;whiteSpace=wrap;html=1;" vertex="1" parent="1">
          <mxGeometry x="215" y="609" width="80" height="80" as="geometry" />
        </mxCell>
      </root>
    </mxGraphModel>
  </diagram>
</mxfile>
